#!OML:ASF E:\Mandelcareful walks\Project 1\Capture day 1\Session 1\Subject1.ASF
:FULLY-SPECIFIED
:DEGREES
536
root 12.9189 13.363 -0.312624 -88.7163 -79.9949 111.971
lowerback 42.1891 1.97375 5.1026
upperback 10.2582 3.13645 0.351414
thorax -8.29192 0.915685 -3.46032
lowerneck -31.7117 -8.85097 -7.01447
upperneck 22.9852 -10.0424 2.86683
head 13.456 -4.56418 0.201758
rclavicle 0 -1.35174e-014
rhumerus 36.3439 -3.11302 -77.327
rradius 43.7721
rwrist -41.3122
rhand -21.981 -40.4842
rfingers 7.12502
rthumb 4.4271 -70.4179
lclavicle 0 -1.35174e-014
lhumerus -36.6111 -25.9834 84.8454
lradius 67.1358
lwrist 39.3549
lhand -35.33 -13.4119
lfingers 7.12502
lthumb -8.46328 16.3985
rfemur -80.8753 -26.6728 9.18346
rtibia 83.5833
rfoot -19.9876 -0.843995
rtoes -8.24092
lfemur -74.9395 13.4664 -19.5783
ltibia 82.196
lfoot -23.7677 -2.53938
ltoes -12.126
537
root 12.9073 13.2889 -0.400071 -84.2418 -80.0341 107.792
lowerback 42.0827 1.80963 5.4468
upperback 10.2342 3.10136 0.409884
thorax -8.27039 0.90717 -3.55952
lowerneck -31.5086 -8.92707 -6.91461
upperneck 22.9832 -10.2231 2.89148
head 13.4232 -4.63215 0.16433
rclavicle 1.27222e-014 1.98785e-014
rhumerus 37.3962 -4.0227 -77.7036
rradius 42.525
rwrist -41.3726
rhand -21.7395 -39.1789
rfingers 7.12502
rthumb 4.66027 -69.1077
lclavicle 1.27222e-014 1.98785e-014
lhumerus -37.1774 -26.6047 85.7509
lradius 65.1989
lwrist 38.7955
lhand -35.1729 -13.7148
lfingers 7.12502
lthumb -8.31163 16.1017
rfemur -81.8116 -27.2336 9.61109
rtibia 84.8627
rfoot -20.5597 -1.08354
rtoes -8.45278
lfemur -75.844 13.2372 -19.3589
ltibia 82.7057
lfoot -23.5333 -2.92718
ltoes -12.2441
538
root 12.8978 13.2163 -0.482297 -80.4702 -80.0593 104.4
lowerback 41.9068 1.64248 5.74841
upperback 10.1871 3.04079 0.438305
thorax -8.25767 0.887746 -3.65877
lowerneck -31.2979 -9.02186 -6.88744
upperneck 22.8705 -10.4234 3.02967
head 13.3565 -4.69998 0.18049
rclavicle 6.36111e-014 5.32743e-014
rhumerus 38.134 -4.61778 -78.0137
rradius 41.5665
rwrist -41.4488
rhand -21.5716 -38.9152
rfingers 7.12502
rthumb 4.82242 -68.8403
lclavicle 6.36111e-014 5.32743e-014
lhumerus -37.8825 -27.2002 86.502
lradius 63.7525
lwrist 38.856
lhand -33.9423 -12.5405
lfingers 7.12502
lthumb -7.12383 17.3196
rfemur -82.8884 -27.6633 10.1084
rtibia 86.0934
rfoot -21.0279 -1.27555
rtoes -8.49617
lfemur -76.8569 13.0425 -19.0393
ltibia 83.2492
lfoot -23.3582 -3.28859
ltoes -12.3269
539
root 12.8859 13.1349 -0.562675 -78.3861 -79.9782 102.704
lowerback 41.7034 1.63831 5.79174
upperback 10.2541 3.0462 0.454301
thorax -8.11908 0.900069 -3.6623
lowerneck -31.5503 -9.05556 -6.74068
upperneck 23.0521 -10.4907 2.90189
head 13.4624 -4.72646 0.0824736
rclavicle 1.90833e-014 3.18055e-014
rhumerus 38.9931 -5.12712 -78.4094
rradius 40.774
rwrist -41.2059
rhand -22.3137 -36.5488
rfingers 7.12502
rthumb 4.10585 -66.489
lclavicle 1.90833e-014 3.18055e-014
lhumerus -38.3551 -27.6296 87.2006
lradius 62.578
lwrist 39.2905
lhand -31.9446 -10.3885
lfingers 7.12502
lthumb -5.19524 19.5278
rfemur -84.0721 -27.8426 10.4978
rtibia 87.3259
rfoot -21.4396 -1.39163
rtoes -8.21888
lfemur -77.7698 13.1957 -18.9282
ltibia 83.8772
lfoot -23.3199 -3.54209
ltoes -13.1293
540
root 12.8688 13.057 -0.634573 -76.3101 -79.8638 100.963
lowerback 41.4599 1.58762 5.88433
upperback 10.4018 2.99841 0.463022
thorax -7.87816 0.890845 -3.67468
lowerneck -32.0921 -9.06616 -6.64039
upperneck 23.3965 -10.4807 2.74606
head 13.6865 -4.71982 -0.0164728
rclavicle 1.90833e-014 4.77083e-014
rhumerus 39.9239 -5.65202 -78.9165
rradius 40.2557
rwrist -40.799
rhand -21.5375 -38.4507
rfingers 7.12502
rthumb 4.85535 -68.3751
lclavicle 1.90833e-014 4.77083e-014
lhumerus -38.6996 -27.9842 88.0415
lradius 61.2195
lwrist 39.9705
lhand -30.2495 -10.4477
lfingers 7.12502
lthumb -3.55843 19.5023
rfemur -85.1118 -28.1236 10.842
rtibia 88.477
rfoot -21.8945 -1.51013
rtoes -8.25797
lfemur -78.4622 13.296 -18.9284
ltibia 84.5171
lfoot -23.4907 -3.59487
ltoes -14.7083
541
root 12.8558 12.9965 -0.701016 -74.4448 -79.9401 99.2262
lowerback 41.6019 1.46834 6.12309
upperback 10.4049 2.96128 0.509204
thorax -7.90642 0.871547 -3.73372
lowerneck -32.1968 -9.04295 -6.61046
upperneck 23.417 -10.4502 2.73294
head 13.7098 -4.70356 -0.0233631
rclavicle -5.40694e-014 -2.8625e-014
rhumerus 40.5782 -5.95875 -79.2842
rradius 39.7597
rwrist -40.3808
rhand -21.491 -38.7302
rfingers 7.12502
rthumb 4.9003 -68.6535
lclavicle -5.40694e-014 -2.8625e-014
lhumerus -39.3989 -28.3796 89.0626
lradius 60.0895
lwrist 40.2923
lhand -28.9607 -10.2487
lfingers 7.12502
lthumb -2.31372 19.7185
rfemur -85.7721 -28.2951 11.3236
rtibia 89.4379
rfoot -22.3038 -1.72715
rtoes -8.29316
lfemur -78.8277 13.3016 -18.5497
ltibia 85.0154
lfoot -23.6281 -3.74435
ltoes -15.2738
